<?xml version="1.0" encoding="UTF-8" standalone="no"?>
<!DOCTYPE svg PUBLIC "-//W3C//DTD SVG 1.1//EN" "http://www.w3.org/Graphics/SVG/1.1/DTD/svg11.dtd">
<svg version="1.1" xmlns="http://www.w3.org/2000/svg" xmlns:xlink="http://www.w3.org/1999/xlink" preserveAspectRatio="xMidYMid meet" viewBox="16.431537971977257 -1 604 110.21999999999997" width="600" height="106.22"><defs><path d="M320.3 106.22L303.77 106.22L364.91 0L426.07 106.22L336.46 106.22L344.78 91.77L401.24 91.77L364.91 28.67L320.3 106.22Z" id="cXz3jhvb5"></path><path d="M469.21 47.61C467.49 46.18 465.09 45.46 461.99 45.46C461.18 45.46 457.11 45.46 449.78 45.46L449.78 64.57C457.11 64.57 461.18 64.57 461.99 64.57C465.09 64.57 467.49 63.79 469.21 62.23C470.93 60.67 471.79 58.2 471.79 54.83C471.79 51.45 470.93 49.05 469.21 47.61M479.55 70.99C475.76 74.16 470.33 75.75 463.29 75.75C462.39 75.75 457.88 75.75 449.78 75.75L449.78 99.08L436.3 99.08L436.3 34.18C453.02 34.18 462.3 34.18 464.16 34.18C470.59 34.18 475.7 35.86 479.52 39.21C483.34 42.55 485.25 47.73 485.25 54.75C485.25 62.4 483.36 67.82 479.55 70.99" id="c1QQMzyMDr"></path><path d="M518.83 85.44C520.8 82.83 521.78 79.13 521.78 74.32C521.78 69.51 520.8 65.82 518.83 63.22C516.87 60.63 514.05 59.33 510.38 59.33C506.71 59.33 503.89 60.63 501.91 63.22C499.92 65.82 498.94 69.51 498.94 74.32C498.94 79.13 499.92 82.83 501.91 85.44C503.89 88.05 506.71 89.36 510.38 89.36C514.05 89.36 516.87 88.05 518.83 85.44M528.86 92.38C524.81 97.38 518.68 99.87 510.42 99.87C502.17 99.87 496.03 97.38 491.98 92.38C487.93 87.38 485.9 81.36 485.9 74.32C485.9 67.4 487.93 61.4 491.98 56.34C496.03 51.26 502.17 48.72 510.42 48.72C518.68 48.72 524.81 51.26 528.86 56.34C532.92 61.4 534.94 67.4 534.94 74.32C534.94 81.36 532.92 87.38 528.86 92.38" id="izkitMlH5"></path><path d="M551.88 99.08L539.34 99.08L539.34 34.18L551.88 34.18L551.88 99.08Z" id="ckrzyp4Cw"></path><path d="M570.01 45.76L557.29 45.76L557.29 34.18L570.01 34.18L570.01 45.76Z" id="c2lNLKDtNt"></path><path d="M557.29 51.09L570.01 51.09L570.01 99.08L557.29 99.08L557.29 51.09Z" id="cBdHAX0WG"></path><path d="M586.27 82.89C586.53 85.12 587.11 86.7 588 87.65C589.55 89.32 592.44 90.16 596.67 90.16C599.14 90.16 601.1 89.79 602.57 89.05C604.02 88.32 604.76 87.22 604.76 85.75C604.76 84.34 604.17 83.27 602.99 82.54C601.81 81.81 597.43 80.54 589.87 78.75C584.41 77.4 580.57 75.72 578.34 73.69C576.11 71.69 574.99 68.82 574.99 65.06C574.99 60.63 576.74 56.83 580.22 53.64C583.7 50.45 588.61 48.86 594.93 48.86C600.94 48.86 605.82 50.05 609.6 52.44C613.38 54.83 615.56 58.97 616.11 64.84C614.86 64.84 604.82 64.84 603.56 64.84C603.38 63.23 602.94 61.96 602.19 61.01C600.82 59.31 598.46 58.46 595.14 58.46C592.4 58.46 590.45 58.88 589.28 59.73C588.13 60.58 587.54 61.59 587.54 62.73C587.54 64.16 588.16 65.2 589.39 65.86C590.63 66.53 595 67.69 602.5 69.33C607.49 70.51 611.24 72.28 613.73 74.66C616.2 77.07 617.43 80.07 617.43 83.68C617.43 88.43 615.66 92.32 612.12 95.33C608.58 98.33 603.09 99.84 595.68 99.84C588.13 99.84 582.55 98.24 578.95 95.06C575.35 91.88 573.54 87.82 573.54 82.89C576.09 82.89 583.72 82.89 586.27 82.89Z" id="a1VfpYLCCN"></path><path d="M50.28 47.71C48.56 46.28 46.16 45.56 43.07 45.56C42.26 45.56 38.2 45.56 30.88 45.56L30.88 64.63C38.2 64.63 42.26 64.63 43.07 64.63C46.16 64.63 48.56 63.85 50.28 62.3C51.99 60.75 52.85 58.28 52.85 54.92C52.85 51.55 51.99 49.15 50.28 47.71M60.6 71.04C56.81 74.2 51.39 75.79 44.36 75.79C43.46 75.79 38.97 75.79 30.88 75.79L30.88 99.07L17.43 99.07L17.43 34.32C34.11 34.32 43.38 34.32 45.24 34.32C51.65 34.32 56.76 35.98 60.57 39.33C64.38 42.66 66.29 47.83 66.29 54.83C66.29 62.47 64.39 67.88 60.6 71.04" id="a16ZyUcOJ"></path><path d="M96.88 75.68C96.08 76.17 95.27 76.58 94.46 76.89C93.63 77.19 92.51 77.49 91.08 77.75C90.79 77.8 88.51 78.22 88.23 78.27C85.55 78.75 83.63 79.32 82.46 80C80.48 81.14 79.5 82.92 79.5 85.32C79.5 87.46 80.1 89.01 81.3 89.96C82.51 90.92 83.98 91.39 85.71 91.39C88.46 91.39 90.97 90.6 93.28 89.01C95.6 87.43 96.8 84.54 96.88 80.34C96.88 79.41 96.88 76.61 96.88 75.68ZM89.22 69.82C91.54 69.53 93.22 69.17 94.23 68.72C96.03 67.96 96.93 66.77 96.93 65.16C96.93 63.19 96.23 61.83 94.86 61.09C93.47 60.34 91.44 59.96 88.76 59.96C85.75 59.96 83.63 60.69 82.37 62.17C81.49 63.25 80.89 64.72 80.59 66.57C79.38 66.57 69.71 66.57 68.5 66.57C68.75 62.37 69.93 58.92 72.03 56.22C75.36 52 81.08 49.88 89.19 49.88C94.46 49.88 99.15 50.92 103.24 53.01C107.34 55.09 109.39 59.03 109.39 64.8C109.39 67 109.39 84.61 109.39 86.81C109.39 88.34 109.41 90.2 109.47 92.37C109.57 94.01 109.82 95.12 110.22 95.7C110.62 96.29 111.25 96.78 112.07 97.15C112.07 97.28 112.07 97.89 112.07 99.01C103.88 99.01 99.33 99.01 98.42 99.01C98.04 98.04 97.78 97.13 97.63 96.27C97.49 95.43 97.37 94.46 97.28 93.37C95.54 95.26 93.54 96.85 91.25 98.18C88.54 99.73 85.47 100.51 82.05 100.51C77.68 100.51 74.06 99.26 71.22 96.79C68.37 94.31 66.95 90.8 66.95 86.25C66.95 80.34 69.23 76.08 73.82 73.44C76.33 72 80.03 70.97 84.91 70.35C85.77 70.25 88.35 69.93 89.22 69.82Z" id="b5QHuDvID8"></path><path d="M143.24 49.97C143.41 49.98 143.77 50 144.32 50.03C144.32 51.31 144.32 61.6 144.32 62.89C143.53 62.8 142.82 62.73 142.21 62.71C141.59 62.68 141.09 62.67 140.72 62.67C135.67 62.67 132.28 64.31 130.54 67.6C129.58 69.45 129.09 72.28 129.09 76.14C129.09 77.67 129.09 85.31 129.09 99.07L116.46 99.07L116.46 51.08L128.43 51.08C128.43 56.11 128.43 58.9 128.43 59.46C130.37 56.26 132.06 54.06 133.49 52.89C135.84 50.93 138.9 49.94 142.66 49.94C142.88 49.94 143.08 49.95 143.24 49.97" id="awIVbRTtt"></path><path d="M175.36 75.59C174.56 76.08 173.75 76.49 172.93 76.8C172.11 77.1 170.98 77.39 169.56 77.66C169.27 77.71 166.99 78.13 166.71 78.18C164.02 78.66 162.1 79.23 160.94 79.9C158.96 81.04 157.98 82.82 157.98 85.22C157.98 87.37 158.58 88.92 159.79 89.87C160.99 90.82 162.45 91.3 164.19 91.3C166.92 91.3 169.45 90.51 171.76 88.92C174.07 87.34 175.28 84.45 175.36 80.25C175.36 79.32 175.36 76.52 175.36 75.59ZM167.69 69.73C170.03 69.44 171.7 69.07 172.7 68.63C174.5 67.87 175.41 66.68 175.41 65.07C175.41 63.09 174.72 61.73 173.33 60.99C171.95 60.25 169.92 59.86 167.24 59.86C164.23 59.86 162.1 60.6 160.86 62.07C159.97 63.15 159.37 64.62 159.07 66.48C157.86 66.48 148.18 66.48 146.97 66.48C147.23 62.27 148.41 58.83 150.51 56.13C153.84 51.91 159.55 49.79 167.66 49.79C172.93 49.79 177.62 50.83 181.72 52.92C185.81 55 187.86 58.93 187.86 64.71C187.86 66.91 187.86 84.52 187.86 86.72C187.86 88.25 187.89 90.1 187.96 92.27C188.04 93.91 188.29 95.03 188.7 95.61C189.11 96.2 189.73 96.69 190.54 97.06C190.54 97.18 190.54 97.8 190.54 98.91C182.36 98.91 177.81 98.91 176.9 98.91C176.53 97.95 176.26 97.03 176.11 96.18C175.96 95.34 175.85 94.36 175.76 93.28C174.01 95.16 172.01 96.76 169.73 98.08C167.02 99.64 163.95 100.42 160.52 100.42C156.15 100.42 152.55 99.17 149.7 96.7C146.85 94.22 145.42 90.7 145.42 86.15C145.42 80.25 147.71 75.99 152.31 73.34C154.81 71.9 158.51 70.87 163.39 70.26C164.25 70.15 166.83 69.83 167.69 69.73Z" id="arug65nyE"></path><path d="M207.03 99.07L194.48 99.07L194.48 34.18L207.03 34.18L207.03 99.07Z" id="b3WRBUB8e7"></path><path d="M293.54 99.07L280.99 99.07L280.99 34.18L293.54 34.18L293.54 99.07Z" id="a2QuJGj85O"></path><path d="M224.97 99.07L212.42 99.07L212.42 34.18L224.97 34.18L224.97 99.07Z" id="e2uVwDTSZB"></path><path d="M245.38 62.69C243.62 64.53 242.5 67 242.05 70.12C244.21 70.12 261.51 70.12 263.67 70.12C263.43 66.8 262.32 64.27 260.32 62.54C258.32 60.82 255.84 59.96 252.88 59.96C249.66 59.96 247.17 60.87 245.38 62.69M264.16 51.86C267.5 53.35 270.27 55.72 272.45 58.96C274.41 61.81 275.68 65.12 276.28 68.88C276.61 71.08 276.75 74.26 276.69 78.41C273.19 78.41 245.24 78.41 241.74 78.41C241.93 83.22 243.61 86.59 246.77 88.54C248.68 89.73 250.98 90.34 253.68 90.34C256.53 90.34 258.85 89.6 260.64 88.13C261.61 87.34 262.48 86.23 263.22 84.83C264.5 84.83 274.75 84.83 276.03 84.83C275.69 87.68 274.15 90.57 271.38 93.51C267.09 98.17 261.06 100.51 253.33 100.51C246.94 100.51 241.31 98.53 236.43 94.6C231.54 90.66 229.11 84.26 229.11 75.38C229.11 67.08 231.31 60.7 235.72 56.27C240.12 51.82 245.85 49.62 252.87 49.62C257.05 49.62 260.81 50.36 264.16 51.86" id="a5NXwevSDJ"></path></defs><g><g><use xlink:href="#cXz3jhvb5" opacity="1" fill="#000000" fill-opacity="1"></use><g><use xlink:href="#cXz3jhvb5" opacity="1" fill-opacity="0" stroke="#000000" stroke-width="1" stroke-opacity="0"></use></g></g><g><use xlink:href="#c1QQMzyMDr" opacity="1" fill="#000000" fill-opacity="1"></use><g><use xlink:href="#c1QQMzyMDr" opacity="1" fill-opacity="0" stroke="#000000" stroke-width="1" stroke-opacity="0"></use></g></g><g><use xlink:href="#izkitMlH5" opacity="1" fill="#000000" fill-opacity="1"></use><g><use xlink:href="#izkitMlH5" opacity="1" fill-opacity="0" stroke="#000000" stroke-width="1" stroke-opacity="0"></use></g></g><g><use xlink:href="#ckrzyp4Cw" opacity="1" fill="#000000" fill-opacity="1"></use><g><use xlink:href="#ckrzyp4Cw" opacity="1" fill-opacity="0" stroke="#000000" stroke-width="1" stroke-opacity="0"></use></g></g><g><use xlink:href="#c2lNLKDtNt" opacity="1" fill="#000000" fill-opacity="1"></use><g><use xlink:href="#c2lNLKDtNt" opacity="1" fill-opacity="0" stroke="#000000" stroke-width="1" stroke-opacity="0"></use></g></g><g><use xlink:href="#cBdHAX0WG" opacity="1" fill="#000000" fill-opacity="1"></use><g><use xlink:href="#cBdHAX0WG" opacity="1" fill-opacity="0" stroke="#000000" stroke-width="1" stroke-opacity="0"></use></g></g><g><use xlink:href="#a1VfpYLCCN" opacity="1" fill="#000000" fill-opacity="1"></use><g><use xlink:href="#a1VfpYLCCN" opacity="1" fill-opacity="0" stroke="#000000" stroke-width="1" stroke-opacity="0"></use></g></g><g><use xlink:href="#a16ZyUcOJ" opacity="1" fill="#000000" fill-opacity="1"></use><g><use xlink:href="#a16ZyUcOJ" opacity="1" fill-opacity="0" stroke="#000000" stroke-width="1" stroke-opacity="0"></use></g></g><g><use xlink:href="#b5QHuDvID8" opacity="1" fill="#000000" fill-opacity="1"></use><g><use xlink:href="#b5QHuDvID8" opacity="1" fill-opacity="0" stroke="#000000" stroke-width="1" stroke-opacity="0"></use></g></g><g><use xlink:href="#awIVbRTtt" opacity="1" fill="#000000" fill-opacity="1"></use><g><use xlink:href="#awIVbRTtt" opacity="1" fill-opacity="0" stroke="#000000" stroke-width="1" stroke-opacity="0"></use></g></g><g><use xlink:href="#arug65nyE" opacity="1" fill="#000000" fill-opacity="1"></use><g><use xlink:href="#arug65nyE" opacity="1" fill-opacity="0" stroke="#000000" stroke-width="1" stroke-opacity="0"></use></g></g><g><use xlink:href="#b3WRBUB8e7" opacity="1" fill="#000000" fill-opacity="1"></use><g><use xlink:href="#b3WRBUB8e7" opacity="1" fill-opacity="0" stroke="#000000" stroke-width="1" stroke-opacity="0"></use></g></g><g><use xlink:href="#a2QuJGj85O" opacity="1" fill="#000000" fill-opacity="1"></use><g><use xlink:href="#a2QuJGj85O" opacity="1" fill-opacity="0" stroke="#000000" stroke-width="1" stroke-opacity="0"></use></g></g><g><use xlink:href="#e2uVwDTSZB" opacity="1" fill="#000000" fill-opacity="1"></use><g><use xlink:href="#e2uVwDTSZB" opacity="1" fill-opacity="0" stroke="#000000" stroke-width="1" stroke-opacity="0"></use></g></g><g><use xlink:href="#a5NXwevSDJ" opacity="1" fill="#000000" fill-opacity="1"></use><g><use xlink:href="#a5NXwevSDJ" opacity="1" fill-opacity="0" stroke="#000000" stroke-width="1" stroke-opacity="0"></use></g></g></g></svg>